<?xml version="1.0" standalone="no"?>
<!DOCTYPE svg PUBLIC "-//W3C//DTD SVG 20010904//EN"
 "http://www.w3.org/TR/2001/REC-SVG-20010904/DTD/svg10.dtd">
<svg version="1.0" xmlns="http://www.w3.org/2000/svg"
 width="564.000000pt" height="564.000000pt" viewBox="0 0 564.000000 564.000000"
 preserveAspectRatio="xMidYMid meet">
<metadata>
Created by potrace 1.11, written by Peter Selinger 2001-2013
</metadata>
<g transform="translate(0.000000,564.000000) scale(0.100000,-0.100000)"
fill="#000000" stroke="none">
<path d="M137 4522 c-10 -2 -17 -13 -18 -25 0 -12 0 -447 1 -967 0 -520 1
-952 1 -960 -1 -19 0 -341 0 -355 0 -5 0 -35 -1 -65 -1 -30 -1 -59 0 -65 1 -5
1 -14 0 -20 -4 -23 0 -247 5 -256 4 -5 2 -9 -3 -9 -5 0 -6 -19 -2 -43 3 -23 3
-57 -1 -75 -4 -18 -3 -34 1 -37 4 -2 5 -22 1 -42 -3 -21 -4 -65 -1 -98 l5 -60
370 0 370 0 5 600 5 600 51 -70 c28 -39 57 -77 65 -86 8 -8 19 -22 24 -31 8
-13 199 -264 237 -313 10 -12 55 -71 85 -111 141 -188 288 -380 293 -384 3 -3
30 -38 59 -79 29 -40 64 -85 77 -100 l23 -27 1048 1 c576 1 1062 5 1078 8 26
6 55 13 155 32 8 2 16 4 18 5 1 2 5 3 10 5 4 1 21 5 37 10 102 27 300 141 374
216 17 17 31 27 32 22 1 -4 3 -24 4 -43 12 -126 62 -230 155 -320 161 -156
389 -190 588 -86 59 32 84 52 163 134 20 21 79 131 84 158 2 10 4 19 5 19 5 0
12 51 15 116 10 199 -102 384 -287 474 -116 57 -270 68 -373 26 -11 -5 -37
-16 -58 -25 -43 -18 -50 -20 -43 -8 25 40 37 247 23 371 -8 66 -44 208 -57
226 -4 6 -15 30 -24 55 -28 73 -121 204 -198 280 -40 38 -78 70 -85 70 -7 0
-13 4 -13 8 0 5 -24 21 -52 37 -29 15 -54 29 -56 31 -2 1 8 28 23 59 66 146
91 298 72 443 -11 83 -56 208 -99 273 -21 33 -38 61 -38 63 0 10 -113 125
-160 162 -30 24 -60 49 -67 54 -30 25 -207 113 -271 134 -86 30 -201 53 -302
61 -41 4 -78 9 -82 11 -5 3 -8 0 -8 -6 0 -6 -5 -8 -11 -4 -15 9 -299 11 -299
2 0 -4 -7 -5 -16 -1 -24 9 -304 9 -304 0 0 -5 -5 -5 -11 -1 -9 5 -197 9 -284
5 -20 -1 -20 -8 -20 -367 0 -300 -2 -360 -12 -337 -7 15 -22 51 -35 78 -60
137 -217 312 -373 417 -94 63 -205 119 -265 133 -3 1 -23 6 -45 13 -58 16
-151 35 -240 48 -77 11 -492 24 -501 15 -6 -6 -74 -7 -74 -1 0 4 -386 4 -400
0 -14 -4 -80 -4 -80 0 0 5 -99 4 -110 0 -3 -1 -9 -1 -15 0 -17 4 -151 5 -168
2z m3346 -762 c97 -46 140 -133 112 -228 -33 -108 -144 -164 -335 -166 l-54
-1 -1 205 c0 113 3 208 8 211 4 3 55 4 115 3 87 -1 116 -6 155 -24z m-2170 6
c23 -4 45 -7 49 -7 23 -1 139 -39 173 -57 56 -28 111 -86 142 -151 22 -45 28
-69 28 -131 0 -65 -4 -84 -32 -140 -17 -36 -40 -74 -51 -85 -36 -37 -82 -75
-92 -75 -5 0 -10 -4 -10 -10 0 -5 -3 -9 -7 -8 -5 1 -35 -8 -68 -21 -57 -22
-72 -23 -300 -23 -132 0 -248 1 -257 1 -17 1 -18 25 -18 355 0 227 4 356 10
358 17 5 389 0 433 -6z m1142 -1286 c0 -492 -3 -656 -11 -647 -20 21 -474 706
-474 714 0 4 19 17 43 28 56 27 156 102 203 155 87 94 188 264 223 373 7 20
13 37 14 37 2 0 2 -297 2 -660z m1285 306 c25 -3 47 -6 50 -4 12 5 131 -67
167 -100 46 -44 61 -69 78 -132 36 -137 -33 -271 -174 -338 l-56 -27 -300 -3
-301 -4 2 304 c1 167 2 305 3 308 2 7 480 4 531 -4z"/>
</g>
</svg>
